<?xml version="1.0" encoding="UTF-8"?>
<svg xmlns="http://www.w3.org/2000/svg" xmlns:xlink="http://www.w3.org/1999/xlink" width="32px" height="32px" viewBox="0 0 32 32" version="1.1">
<defs>
<linearGradient id="linear0" gradientUnits="userSpaceOnUse" x1="9.993" y1="9.993" x2="40.615" y2="40.615" gradientTransform="matrix(0.666667,0,0,0.666667,0,0)">
<stop offset="0" style="stop-color:rgb(16.470588%,64.313725%,95.686275%);stop-opacity:1;"/>
<stop offset="1" style="stop-color:rgb(0%,47.843137%,85.098039%);stop-opacity:1;"/>
</linearGradient>
</defs>
<g id="surface1">
<path style=" stroke:none;fill-rule:nonzero;fill:url(#linear0);" d="M 16 2.667969 C 8.636719 2.667969 2.667969 8.636719 2.667969 16 C 2.667969 23.363281 8.636719 29.332031 16 29.332031 C 23.363281 29.332031 29.332031 23.363281 29.332031 16 C 29.332031 8.636719 23.363281 2.667969 16 2.667969 Z M 16 2.667969 "/>
<path style=" stroke:none;fill-rule:nonzero;fill:rgb(100%,100%,100%);fill-opacity:1;" d="M 17.804688 19.535156 L 21.253906 19.535156 L 21.796875 16.027344 L 17.804688 16.027344 L 17.804688 14.113281 C 17.804688 12.65625 18.28125 11.367188 19.644531 11.367188 L 21.832031 11.367188 L 21.832031 8.308594 C 21.445312 8.253906 20.632812 8.140625 19.097656 8.140625 C 15.886719 8.140625 14.007812 9.835938 14.007812 13.699219 L 14.007812 16.03125 L 10.707031 16.03125 L 10.707031 19.535156 L 14.003906 19.535156 L 14.003906 29.167969 C 14.660156 29.265625 15.320312 29.332031 16 29.332031 C 16.613281 29.332031 17.214844 29.277344 17.804688 29.199219 Z M 17.804688 19.535156 "/>
</g>
</svg>
